<?xml version="1.0" encoding="UTF-8"?>
<!DOCTYPE svg PUBLIC "-//W3C//DTD SVG 1.1//EN" "http://www.w3.org/Graphics/SVG/1.1/DTD/svg11.dtd">
<!-- Creator: CorelDRAW X6 -->
<svg xmlns="http://www.w3.org/2000/svg" xml:space="preserve" width="1024px" height="256px" version="1.1" style="shape-rendering:geometricPrecision; text-rendering:geometricPrecision; image-rendering:optimizeQuality; fill-rule:evenodd; clip-rule:evenodd"
viewBox="0 0 683 171"
 xmlns:xlink="http://www.w3.org/1999/xlink">
 <defs>
  <style type="text/css">
   <![CDATA[
    .str0 {stroke:black;stroke-width:0.599999}
    .fil0 {fill:none}
    .fil3 {fill:black}
    .fil1 {fill:#3F3F4D}
    .fil4 {fill:#515163}
    .fil8 {fill:#B3B3B3}
    .fil6 {fill:#CCCCCC}
    .fil2 {fill:white}
    .fil9 {fill:#3F3F4D;fill-rule:nonzero}
    .fil7 {fill:url(#id0)}
    .fil5 {fill:url(#id1)}
   ]]>
  </style>
  <radialGradient id="id0" gradientUnits="objectBoundingBox" cx="50%" cy="50%" r="35.9998%" fx="50%" fy="50%">
   <stop offset="0" style="stop-color:#990000"/>
   <stop offset="1" style="stop-color:red"/>
  </radialGradient>
  <radialGradient id="id1" gradientUnits="objectBoundingBox" cx="50%" cy="50%" r="35.0002%" fx="50%" fy="50%">
   <stop offset="0" style="stop-color:#339966"/>
   <stop offset="1" style="stop-color:#33CC33"/>
  </radialGradient>
 </defs>
 <g id="Layer_x0020_1">
  <metadata id="CorelCorpID_0Corel-Layer"/>
  <rect class="fil0" width="683" height="171"/>
  <polygon class="fil1 str0" points="592,107 538,107 517,128 538,149 592,149 "/>
  <polygon class="fil2" points="581,139 569,128 581,116 579,115 567,127 555,115 554,116 566,128 554,139 555,141 567,129 580,141 "/>
  <g id="_795387504">
   <path class="fil1" d="M14 107l0 50c0,3 1,5 5,5l41 0c2,0 5,-1 5,-3 0,-8 1,-28 -1,-35 -2,-1 -7,-3 -7,5l0 25 -35 0 0 -46c8,0 22,2 21,-4 -1,-2 -1,-3 -5,-3l-19 0c-3,0 -5,2 -5,5z"/>
   <polygon class="fil1" points="57,101 50,101 50,108 57,108 57,115 64,115 64,108 71,108 71,101 64,101 64,94 57,94 "/>
  </g>
  <path class="fil1" d="M573 56c5,0 9,4 9,9 0,5 -4,9 -9,9 -5,0 -9,-4 -9,-9 0,-1 0,-1 0,-2l-23 -13 0 -1c-2,1 -3,2 -6,2 -5,0 -9,-4 -9,-9 0,-5 4,-9 9,-9 2,0 4,1 6,2l0 0 24 -14 0 0c0,-1 0,-1 0,-2 0,-5 4,-9 9,-9 5,0 9,4 9,9 0,5 -4,9 -9,9 -2,0 -4,-1 -5,-2l0 0 -24 14c0,0 0,1 0,1 0,1 0,1 0,2l0 0 23 13c1,-1 3,-2 5,-2z"/>
  <g id="_795373232">
   <polygon class="fil3" points="342,151 369,120 341,86 "/>
   <polygon class="fil4" points="346,145 372,122 342,87 "/>
   <ellipse class="fil1" cx="367" cy="145" rx="26" ry="25"/>
  </g>
  <g id="_795372048">
   <path class="fil1" d="M150 113l6 0 0 4 -4 0 0 41c0,1 -1,2 -3,2l-43 0c-2,0 -3,-1 -3,-2l0 -41 -4 0 0 -4 5 0c0,0 46,0 46,0zm-37 6l0 0c1,0 2,1 2,2l0 32c0,1 -1,2 -2,2l0 0c-1,0 -2,-1 -2,-2l0 -32c0,-1 1,-2 2,-2zm10 0l0 0c1,0 2,1 2,2l0 32c0,1 -1,2 -2,2l0 0c-1,0 -2,-1 -2,-2l0 -32c0,-1 1,-2 2,-2zm9 0l0 0c1,0 2,1 2,2l0 32c0,1 -1,2 -2,2l0 0c-1,0 -2,-1 -2,-2l0 -32c0,-1 1,-2 2,-2zm10 0l0 0c1,0 2,1 2,2l0 32c0,1 -1,2 -2,2l0 0c-1,0 -2,-1 -2,-2l0 -32c0,-1 1,-2 2,-2z"/>
   <polygon class="fil1" points="101,98 117,100 117,95 141,98 141,102 157,104 156,110 100,104 "/>
  </g>
  <g id="_795365104">
   <path class="fil1" d="M182 128c0,-3 -2,-6 -5,-9 -2,-1 -2,-3 -1,-5l7 -12c1,-2 3,-2 5,-1 5,3 15,1 16,-9 0,-2 2,-4 4,-4l14 0c2,0 3,2 4,4 1,7 7,13 16,9 2,-1 4,0 5,1l7 12c1,2 0,4 -1,5 -4,3 -5,6 -5,9l0 0c0,3 2,6 5,9 2,1 2,3 1,5l-7 12c-1,2 -3,2 -5,1 -5,-3 -15,-1 -16,9 0,2 -2,4 -4,4l-14 0c-2,0 -3,-2 -4,-4 -1,-7 -7,-13 -16,-9 -2,1 -4,0 -5,-1l-7 -12c-1,-2 0,-4 1,-5 4,-3 5,-6 5,-9l0 0zm32 24c13,0 24,-11 24,-24 0,-13 -11,-24 -24,-24 -13,0 -24,11 -24,24 0,13 11,24 24,24z"/>
   <circle class="fil1" cx="213" cy="128" r="10"/>
  </g>
  <g id="_795373584">
   <circle class="fil5" cx="384" cy="43" r="36"/>
   <path class="fil6" d="M365 44c5,-5 5,-7 8,-6 1,1 3,3 6,7 5,-8 12,-14 19,-20 3,-3 5,3 6,7 0,1 0,1 0,2 -9,10 -13,13 -21,25 -2,3 -4,2 -6,-1 -4,-4 -8,-8 -10,-11 -1,-1 -1,-2 -1,-3z"/>
   <path class="fil2" d="M365 44c5,-5 5,-6 7,-4 1,1 7,8 7,7 5,-8 11,-14 19,-20 3,-3 5,2 6,5 0,1 0,1 0,2 -9,10 -13,13 -21,25 -2,3 -4,2 -6,-1 -4,-4 -8,-8 -10,-11 -1,-1 -1,-2 -1,-3z"/>
  </g>
  <g id="_795362832">
   <circle class="fil7" cx="469" cy="43" r="36"/>
   <path class="fil8" d="M478 27c3,-3 5,2 6,5 0,1 0,1 0,2 -3,3 -6,6 -8,8 6,7 10,14 7,16 -3,2 -5,4 -6,1 -3,-4 -5,-7 -7,-10 -2,3 -5,6 -7,10 -2,3 -3,1 -6,-1 -3,-2 2,-9 7,-16 -2,-2 -5,-5 -8,-8 0,0 0,-1 0,-2 1,-3 3,-8 6,-5 2,1 5,4 8,8 4,-4 7,-7 8,-8z"/>
   <path class="fil2" d="M478 28c3,-3 5,1 6,4 0,1 0,1 0,2 -3,3 -6,6 -8,8 6,7 10,14 7,16 -3,2 -5,4 -6,1 -3,-4 -5,-7 -7,-10 -2,3 -5,6 -7,10 -2,3 -3,1 -6,-1 -3,-2 2,-9 7,-16 -2,-2 -5,-5 -8,-8 0,0 0,-1 0,-2 1,-3 3,-7 6,-4 2,1 5,4 8,8 4,-4 7,-7 9,-8z"/>
  </g>
  <path class="fil1" d="M43 14c-12,19 -25,38 -37,57 29,-20 53,-17 74,0 -12,-19 -25,-38 -37,-57z"/>
  <path class="fil1" d="M213 71c-12,-19 -25,-38 -37,-57 29,20 53,17 74,0 -12,19 -25,38 -37,57z"/>
  <path class="fil1" d="M156 43c-19,12 -38,25 -57,37 20,-29 17,-53 0,-74 19,12 38,25 57,37z"/>
  <polygon class="fil1" points="469,166 469,166 482,166 482,128 501,128 469,90 438,128 457,128 457,166 "/>
  <path class="fil1" d="M640 9c-5,0 -10,1 -14,2 -4,1 -8,3 -12,6 -7,5 -11,11 -11,18 1,9 6,16 15,20 -2,6 -6,11 -12,17 -10,8 8,4 14,1 5,-3 15,-11 18,-12l3 0c21,0 38,-12 38,-26 0,-14 -17,-26 -38,-26zm0 8c16,0 29,8 29,19 0,10 -13,19 -29,19 -16,0 -29,-8 -29,-19 0,-10 13,-19 29,-19z"/>
  <path class="fil9" d="M632 29c0,-1 0,-2 1,-3 1,-1 2,-2 3,-3 1,-1 3,-1 5,-1 2,0 3,0 4,1 1,1 2,1 3,2 1,1 1,2 1,3 0,1 0,2 -1,2 0,1 -1,1 -1,2 -1,1 -1,1 -3,3 0,0 -1,1 -1,1 0,0 0,1 -1,1 0,0 0,0 0,1 0,0 0,1 0,1 0,1 -1,2 -2,2 -1,0 -1,0 -1,-1 0,0 -1,-1 -1,-2 0,-1 0,-2 0,-2 0,-1 1,-1 1,-2 0,-1 1,-1 2,-2 1,-1 1,-1 2,-1 0,0 1,-1 1,-1 0,0 0,-1 0,-1 0,-1 0,-2 -1,-2 -1,-1 -2,-1 -3,-1 -1,0 -2,0 -3,1 -1,1 -1,2 -1,3 0,1 -1,2 -2,2 -1,0 -1,0 -2,-1 0,0 -1,-1 -1,-1zm8 18c-1,0 -1,0 -2,-1 -1,0 -1,-1 -1,-2 0,-1 0,-1 1,-2 0,0 1,-1 2,-1 1,0 1,0 2,1 0,0 1,1 1,2 0,1 0,1 -1,2 -1,0 -1,1 -2,1z"/>
  <path class="fil1" d="M270 43c19,12 38,25 57,37 -20,-29 -17,-53 0,-74 -19,12 -38,25 -57,37z"/>
  <g id="_795369168">
   <polygon class="fil3" points="341,151 314,120 341,86 "/>
   <polygon class="fil4" points="337,145 311,122 341,87 "/>
   <ellipse class="fil1" cx="316" cy="145" rx="26" ry="25"/>
  </g>
 </g>
</svg>
